<svg width="128" height="128" viewBox="0 0 128 128" fill="none" xmlns="http://www.w3.org/2000/svg">
<circle cx="64" cy="64" r="63" stroke="#2678F4" stroke-width="2"/>
<path d="M90.9471 47.0518L52.6752 87.2203C52.3389 87.5729 51.8829 87.771 51.4075 87.771C50.9321 87.771 50.4761 87.5729 50.1397 87.2203L33.3958 69.6466C33.0789 69.2896 32.9064 68.8175 32.9146 68.3297C32.9228 67.8419 33.1111 67.3765 33.4398 67.0315C33.7684 66.6866 34.2119 66.489 34.6767 66.4804C35.1414 66.4717 35.5912 66.6528 35.9313 66.9854L51.4075 83.2254L88.4116 44.3906C88.7517 44.058 89.2015 43.8769 89.6663 43.8855C90.131 43.8942 90.5745 44.0918 90.9032 44.4367C91.2318 44.7817 91.4201 45.2471 91.4283 45.7349C91.4365 46.2227 91.264 46.6948 90.9471 47.0518Z" fill="#2678F4" stroke="#2678F4"/>
</svg>
